<svg width="601" height="601" viewBox="0 0 601 601" fill="none" xmlns="http://www.w3.org/2000/svg">
<path d="M300.5 580.5C455.14 580.5 580.5 455.14 580.5 300.5C580.5 145.86 455.14 20.5 300.5 20.5C145.86 20.5 20.5 145.86 20.5 300.5C20.5 455.14 145.86 580.5 300.5 580.5Z" fill="#8B6F47"/>
<path d="M300.5 560.5C444.094 560.5 560.5 444.094 560.5 300.5C560.5 156.906 444.094 40.5 300.5 40.5C156.906 40.5 40.5 156.906 40.5 300.5C40.5 444.094 156.906 560.5 300.5 560.5Z" fill="#D4B896"/>
<path opacity="0.5" d="M120.5 180.5C240.5 153.833 360.5 153.833 480.5 180.5" stroke="#8B6F47" stroke-width="1.5"/>
<path d="M153.89 151.988C153.89 154.068 153.586 156.18 152.978 158.324C152.37 160.468 151.426 162.5 150.146 164.42C148.898 166.34 147.33 168.068 145.442 169.604C143.586 171.108 141.378 172.308 138.818 173.204C136.29 174.068 133.426 174.5 130.226 174.5C129.714 174.5 129.09 174.484 128.354 174.452C127.65 174.42 126.85 174.404 125.954 174.404C125.058 174.372 124.066 174.356 122.978 174.356C122.242 174.356 121.41 174.372 120.482 174.404C119.586 174.404 118.706 174.42 117.842 174.452C117.01 174.452 116.322 174.468 115.778 174.5L115.922 173.54C116.946 173.476 117.746 173.348 118.322 173.156C118.93 172.964 119.41 172.58 119.762 172.004C120.114 171.428 120.434 170.564 120.722 169.412L127.01 145.604C127.266 144.676 127.378 143.924 127.346 143.348C127.346 142.74 127.106 142.292 126.626 142.004C126.178 141.716 125.378 141.54 124.226 141.476L124.37 140.516C124.946 140.548 125.682 140.58 126.578 140.612C127.474 140.644 128.418 140.66 129.41 140.66C130.434 140.66 131.378 140.66 132.242 140.66C132.818 140.628 133.554 140.612 134.45 140.612C135.346 140.58 136.242 140.564 137.138 140.564C138.034 140.532 138.786 140.516 139.394 140.516C144.034 140.516 147.602 141.476 150.098 143.396C152.626 145.316 153.89 148.18 153.89 151.988ZM130.226 173.636C132.274 173.636 134.13 173.188 135.794 172.292C137.49 171.396 138.978 170.18 140.258 168.644C141.538 167.076 142.61 165.3 143.474 163.316C144.338 161.332 144.994 159.252 145.442 157.076C145.89 154.868 146.114 152.66 146.114 150.452C146.114 147.508 145.506 145.268 144.29 143.732C143.074 142.164 141.09 141.38 138.338 141.38C137.538 141.38 136.93 141.492 136.514 141.716C136.098 141.908 135.762 142.292 135.506 142.868C135.25 143.444 134.962 144.324 134.642 145.508L128.354 169.508C128.098 170.532 127.938 171.348 127.874 171.956C127.81 172.564 127.938 172.996 128.258 173.252C128.61 173.508 129.266 173.636 130.226 173.636ZM160.921 164.084C162.233 163.572 163.481 162.996 164.665 162.356C165.849 161.716 166.857 161.012 167.689 160.244C168.937 159.124 169.929 157.828 170.665 156.356C171.433 154.852 171.817 153.236 171.817 151.508C171.817 150.868 171.753 150.452 171.625 150.26C171.497 150.036 171.305 149.924 171.049 149.924C170.345 149.924 169.577 150.292 168.745 151.028C167.945 151.732 167.145 152.692 166.345 153.908C165.545 155.092 164.809 156.452 164.137 157.988C163.497 159.524 162.969 161.124 162.553 162.788C162.169 164.452 161.977 166.068 161.977 167.636C161.977 169.428 162.313 170.66 162.985 171.332C163.689 171.972 164.585 172.292 165.673 172.292C166.537 172.292 167.609 172.004 168.889 171.428C170.169 170.852 171.433 169.828 172.681 168.356L173.449 168.74C172.777 169.796 171.897 170.82 170.809 171.812C169.721 172.804 168.457 173.62 167.017 174.26C165.577 174.868 164.009 175.172 162.313 175.172C160.873 175.172 159.577 174.916 158.425 174.404C157.305 173.892 156.409 173.14 155.737 172.148C155.097 171.124 154.777 169.876 154.777 168.404C154.777 166.708 155.049 164.964 155.593 163.172C156.169 161.38 156.969 159.652 157.993 157.988C159.017 156.292 160.249 154.772 161.689 153.428C163.129 152.052 164.729 150.98 166.489 150.212C168.249 149.412 170.121 149.012 172.105 149.012C173.513 149.012 174.697 149.332 175.657 149.972C176.617 150.58 177.097 151.524 177.097 152.804C177.097 154.052 176.745 155.22 176.041 156.308C175.369 157.396 174.457 158.388 173.305 159.284C172.153 160.18 170.857 160.98 169.417 161.684C168.009 162.388 166.553 162.996 165.049 163.508C163.577 164.02 162.185 164.42 160.873 164.708L160.921 164.084ZM183.949 170.42C183.725 171.252 183.693 171.86 183.853 172.244C184.045 172.628 184.349 172.82 184.765 172.82C185.117 172.82 185.549 172.596 186.061 172.148C186.573 171.668 187.101 170.628 187.645 169.028L188.509 166.724H189.421L188.221 170.228C187.773 171.54 187.197 172.548 186.493 173.252C185.789 173.956 185.037 174.452 184.237 174.74C183.437 175.028 182.637 175.172 181.837 175.172C180.781 175.172 179.933 174.98 179.293 174.596C178.653 174.244 178.173 173.732 177.853 173.06C177.565 172.356 177.437 171.54 177.469 170.612C177.533 169.684 177.725 168.66 178.045 167.54L185.581 142.484C185.901 141.396 185.869 140.596 185.485 140.084C185.101 139.572 184.125 139.316 182.557 139.316L182.893 138.308C185.197 138.276 187.213 138.1 188.941 137.78C190.701 137.428 192.397 136.948 194.029 136.34L183.949 170.42ZM198.195 153.764C198.739 152.164 198.563 151.364 197.667 151.364C197.091 151.364 196.563 151.652 196.083 152.228C195.603 152.804 195.091 153.78 194.547 155.156L193.635 157.604H192.723L194.019 153.956C194.467 152.676 195.027 151.684 195.699 150.98C196.403 150.276 197.187 149.78 198.051 149.492C198.915 149.172 199.795 149.012 200.691 149.012C201.843 149.012 202.723 149.22 203.331 149.636C203.971 150.052 204.403 150.596 204.627 151.268C204.883 151.908 204.979 152.628 204.915 153.428C204.851 154.196 204.691 154.964 204.435 155.732L199.347 170.42C199.091 171.284 199.027 171.908 199.155 172.292C199.283 172.644 199.571 172.82 200.019 172.82C200.435 172.82 200.899 172.58 201.411 172.1C201.923 171.62 202.467 170.596 203.043 169.028L203.907 166.724H204.819L203.619 170.228C203.139 171.54 202.547 172.548 201.843 173.252C201.171 173.956 200.419 174.452 199.587 174.74C198.755 175.028 197.939 175.172 197.139 175.172C195.731 175.172 194.659 174.868 193.923 174.26C193.219 173.652 192.835 172.772 192.771 171.62C192.707 170.468 192.947 169.108 193.491 167.54L198.195 153.764ZM199.491 145.268C200.675 143.604 201.619 142.164 202.323 140.948C203.027 139.732 203.651 138.66 204.195 137.732C204.771 136.804 205.395 136.004 206.067 135.332C206.675 134.692 207.395 134.292 208.227 134.132C209.091 133.94 209.827 134.164 210.435 134.804C211.011 135.348 211.219 135.988 211.059 136.724C210.899 137.428 210.451 138.148 209.715 138.884C209.075 139.524 208.291 140.148 207.363 140.756C206.467 141.332 205.411 142.004 204.195 142.772C202.979 143.54 201.571 144.532 199.971 145.748L199.491 145.268ZM224.176 149.972C222.992 149.972 221.824 150.484 220.672 151.508C219.52 152.5 218.48 153.844 217.552 155.54C216.656 157.236 215.936 159.14 215.392 161.252C214.848 163.364 214.576 165.54 214.576 167.78C214.576 169.476 214.912 170.708 215.584 171.476C216.256 172.212 217.136 172.58 218.224 172.58C219.248 172.58 220.288 172.276 221.344 171.668C222.4 171.06 223.472 169.956 224.56 168.356L225.52 168.74C224.88 169.796 224.048 170.82 223.024 171.812C222.032 172.804 220.864 173.62 219.52 174.26C218.208 174.868 216.72 175.172 215.056 175.172C212.816 175.172 210.976 174.58 209.536 173.396C208.096 172.18 207.376 170.308 207.376 167.78C207.376 166.212 207.616 164.564 208.096 162.836C208.608 161.108 209.328 159.428 210.256 157.796C211.184 156.132 212.32 154.644 213.664 153.332C215.008 152.02 216.528 150.98 218.224 150.212C219.92 149.412 221.76 149.012 223.744 149.012C225.504 149.012 226.912 149.46 227.968 150.356C229.056 151.22 229.6 152.308 229.6 153.62C229.6 154.484 229.392 155.332 228.976 156.164C228.56 156.964 227.984 157.636 227.248 158.18C226.544 158.692 225.744 158.948 224.848 158.948C224.08 158.948 223.424 158.708 222.88 158.228C222.368 157.716 222.112 157.028 222.112 156.164C222.112 154.852 222.544 153.732 223.408 152.804C224.304 151.844 225.328 151.22 226.48 150.932C226.224 150.612 225.904 150.372 225.52 150.212C225.168 150.052 224.72 149.972 224.176 149.972ZM237.707 141.668C237.771 140.292 238.267 139.236 239.195 138.5C240.155 137.764 241.291 137.396 242.603 137.396C243.787 137.396 244.683 137.684 245.291 138.26C245.931 138.804 246.219 139.572 246.155 140.564C246.091 141.812 245.579 142.836 244.619 143.636C243.659 144.404 242.507 144.788 241.163 144.788C240.043 144.788 239.163 144.516 238.523 143.972C237.915 143.396 237.643 142.628 237.707 141.668ZM235.883 153.764C236.427 152.164 236.251 151.364 235.355 151.364C234.779 151.364 234.251 151.652 233.771 152.228C233.291 152.804 232.795 153.78 232.283 155.156L231.323 157.604H230.411L231.755 153.956C232.203 152.676 232.763 151.684 233.435 150.98C234.139 150.276 234.907 149.78 235.739 149.492C236.603 149.172 237.499 149.012 238.427 149.012C239.547 149.012 240.427 149.22 241.067 149.636C241.707 150.052 242.139 150.596 242.363 151.268C242.587 151.908 242.667 152.628 242.603 153.428C242.539 154.196 242.379 154.964 242.123 155.732L237.083 170.42C236.795 171.284 236.715 171.908 236.843 172.292C237.003 172.644 237.307 172.82 237.755 172.82C238.171 172.82 238.619 172.58 239.099 172.1C239.611 171.62 240.171 170.596 240.779 169.028L241.643 166.724H242.555L241.307 170.228C240.859 171.54 240.283 172.548 239.579 173.252C238.875 173.956 238.107 174.452 237.275 174.74C236.475 175.028 235.659 175.172 234.827 175.172C233.451 175.172 232.395 174.868 231.659 174.26C230.955 173.652 230.571 172.772 230.507 171.62C230.443 170.468 230.667 169.108 231.179 167.54L235.883 153.764ZM253.08 172.58C253.592 172.58 254.152 172.308 254.76 171.764C255.368 171.22 255.992 170.436 256.632 169.412C257.272 168.356 257.896 167.076 258.504 165.572C259.112 164.068 259.672 162.324 260.184 160.34L259.128 165.572C258.328 167.94 257.448 169.828 256.488 171.236C255.528 172.644 254.504 173.652 253.416 174.26C252.328 174.868 251.192 175.172 250.008 175.172C248.216 175.172 246.872 174.644 245.976 173.588C245.08 172.532 244.632 171.092 244.632 169.268C244.632 167.54 244.92 165.732 245.496 163.844C246.104 161.956 246.904 160.132 247.896 158.372C248.92 156.612 250.056 155.028 251.304 153.62C252.584 152.212 253.928 151.092 255.336 150.26C256.776 149.428 258.184 149.012 259.56 149.012C260.616 149.012 261.432 149.428 262.008 150.26C262.584 151.092 262.76 152.388 262.536 154.148L262.008 154.436C262.168 153.284 262.104 152.388 261.816 151.748C261.56 151.108 261.112 150.788 260.472 150.788C259.832 150.788 259.112 151.156 258.312 151.892C257.544 152.628 256.776 153.636 256.008 154.916C255.24 156.196 254.52 157.652 253.848 159.284C253.208 160.884 252.696 162.58 252.312 164.372C251.928 166.132 251.736 167.876 251.736 169.604C251.736 170.692 251.848 171.46 252.072 171.908C252.296 172.356 252.632 172.58 253.08 172.58ZM263.256 149.732C264.632 149.7 265.88 149.636 267 149.54C268.12 149.412 269.192 149.236 270.216 149.012L263.928 170.42C263.832 170.836 263.752 171.236 263.688 171.62C263.656 171.972 263.704 172.26 263.832 172.484C263.992 172.708 264.248 172.82 264.6 172.82C265.016 172.82 265.48 172.58 265.992 172.1C266.504 171.588 267.032 170.564 267.576 169.028L268.44 166.724H269.352L268.152 170.228C267.704 171.54 267.128 172.548 266.424 173.252C265.72 173.956 264.968 174.452 264.168 174.74C263.368 175.028 262.584 175.172 261.816 175.172C260.152 175.172 258.968 174.676 258.264 173.684C257.784 172.98 257.56 172.116 257.592 171.092C257.656 170.036 257.88 168.836 258.264 167.492L263.256 149.732ZM274.997 173.828C275.253 173.956 275.525 174.052 275.813 174.116C276.101 174.148 276.453 174.164 276.869 174.164C278.053 174.164 279.013 173.812 279.749 173.108C280.517 172.372 280.901 171.348 280.901 170.036C280.901 168.98 280.677 167.908 280.229 166.82C279.781 165.7 279.109 164.484 278.213 163.172C277.477 162.02 276.789 160.9 276.149 159.812C275.541 158.724 275.237 157.476 275.237 156.068C275.237 154.692 275.589 153.476 276.293 152.42C276.997 151.364 277.989 150.532 279.269 149.924C280.581 149.316 282.149 149.012 283.973 149.012C285.157 149.012 286.293 149.156 287.381 149.444C288.501 149.732 289.429 150.228 290.165 150.932C290.901 151.636 291.269 152.66 291.269 154.004C291.269 154.484 291.157 155.012 290.933 155.588C290.741 156.164 290.421 156.644 289.973 157.028C289.557 157.38 289.013 157.556 288.341 157.556C287.541 157.556 286.901 157.268 286.421 156.692C285.941 156.084 285.701 155.3 285.701 154.34C285.701 153.476 285.845 152.708 286.133 152.036C286.453 151.332 286.805 150.772 287.189 150.356C286.773 150.1 286.213 149.972 285.509 149.972C284.357 149.972 283.445 150.324 282.773 151.028C282.133 151.732 281.797 152.74 281.765 154.052C281.765 154.788 281.893 155.492 282.149 156.164C282.405 156.804 282.757 157.46 283.205 158.132C283.653 158.804 284.133 159.556 284.645 160.388C285.605 161.956 286.309 163.3 286.757 164.42C287.237 165.54 287.477 166.676 287.477 167.828C287.477 169.204 287.109 170.452 286.373 171.572C285.669 172.66 284.629 173.54 283.253 174.212C281.909 174.852 280.309 175.172 278.453 175.172C277.109 175.172 275.829 174.996 274.613 174.644C273.397 174.292 272.405 173.716 271.637 172.916C270.901 172.084 270.533 170.98 270.533 169.604C270.533 168.708 270.773 167.908 271.253 167.204C271.701 166.5 272.357 166.148 273.221 166.148C274.085 166.148 274.757 166.516 275.237 167.252C275.717 167.956 275.957 168.836 275.957 169.892C275.957 170.724 275.829 171.476 275.573 172.148C275.349 172.82 275.157 173.38 274.997 173.828ZM324.188 170.42C323.9 171.188 323.82 171.78 323.948 172.196C324.108 172.612 324.412 172.82 324.86 172.82C325.276 172.82 325.724 172.58 326.204 172.1C326.716 171.588 327.244 170.564 327.788 169.028L328.604 166.724H329.516L328.364 170.228C327.948 171.54 327.388 172.564 326.684 173.3C325.98 174.004 325.212 174.484 324.38 174.74C323.58 175.028 322.796 175.172 322.028 175.172C320.044 175.172 318.78 174.436 318.236 172.964C317.948 172.356 317.82 171.604 317.852 170.708C317.884 169.78 318.076 168.724 318.428 167.54L325.1 142.484C325.42 141.396 325.388 140.596 325.004 140.084C324.62 139.572 323.644 139.316 322.076 139.316L322.364 138.308C324.636 138.276 326.668 138.1 328.46 137.78C330.252 137.428 331.964 136.948 333.596 136.34L324.188 170.42ZM312.668 172.772C313.212 172.772 313.852 172.42 314.588 171.716C315.324 171.012 316.108 169.972 316.94 168.596C317.772 167.188 318.572 165.476 319.34 163.46C320.108 161.412 320.796 159.076 321.404 156.452L320.684 161.636C319.628 164.708 318.572 167.252 317.516 169.268C316.492 171.284 315.356 172.772 314.108 173.732C312.892 174.692 311.436 175.172 309.74 175.172C308.684 175.172 307.724 174.932 306.86 174.452C305.996 173.972 305.308 173.252 304.796 172.292C304.284 171.3 304.028 170.02 304.028 168.452C304.028 166.98 304.252 165.38 304.7 163.652C305.18 161.892 305.868 160.164 306.764 158.468C307.692 156.772 308.796 155.204 310.076 153.764C311.388 152.324 312.876 151.172 314.54 150.308C316.204 149.444 318.028 149.012 320.012 149.012C321.036 149.012 321.788 149.252 322.268 149.732C322.78 150.18 323.084 150.82 323.18 151.652L322.796 152.612C322.668 151.78 322.444 151.156 322.124 150.74C321.804 150.324 321.324 150.116 320.684 150.116C319.852 150.116 318.988 150.5 318.092 151.268C317.196 152.004 316.332 153.028 315.5 154.34C314.7 155.62 313.964 157.092 313.292 158.756C312.62 160.388 312.092 162.132 311.708 163.988C311.324 165.812 311.132 167.636 311.132 169.46C311.132 170.548 311.244 171.38 311.468 171.956C311.724 172.5 312.124 172.772 312.668 172.772ZM347.521 149.972C346.785 149.972 346.001 150.42 345.169 151.316C344.369 152.18 343.569 153.348 342.769 154.82C342.001 156.292 341.297 157.94 340.657 159.764C340.049 161.588 339.553 163.476 339.169 165.428C338.817 167.348 338.641 169.188 338.641 170.948C338.641 172.1 338.769 172.932 339.025 173.444C339.313 173.956 339.729 174.212 340.273 174.212C341.009 174.212 341.777 173.796 342.577 172.964C343.377 172.1 344.161 170.948 344.929 169.508C345.697 168.068 346.385 166.452 346.993 164.66C347.633 162.836 348.145 160.948 348.529 158.996C348.913 157.044 349.105 155.156 349.105 153.332C349.105 151.988 348.961 151.092 348.673 150.644C348.417 150.196 348.033 149.972 347.521 149.972ZM332.209 167.252C332.209 165.78 332.401 164.212 332.785 162.548C333.201 160.884 333.825 159.252 334.657 157.652C335.489 156.052 336.513 154.612 337.729 153.332C338.977 152.02 340.433 150.98 342.097 150.212C343.793 149.412 345.681 149.012 347.761 149.012C350.225 149.012 352.129 149.684 353.473 151.028C354.849 152.372 355.537 154.34 355.537 156.932C355.537 158.404 355.329 159.972 354.913 161.636C354.529 163.3 353.921 164.932 353.089 166.532C352.257 168.132 351.217 169.588 349.969 170.9C348.753 172.18 347.297 173.22 345.601 174.02C343.937 174.788 342.065 175.172 339.985 175.172C337.521 175.172 335.601 174.5 334.225 173.156C332.881 171.812 332.209 169.844 332.209 167.252ZM406.761 133.316C407.913 133.316 408.809 133.668 409.449 134.372C410.121 135.044 410.457 135.812 410.457 136.676C410.457 137.7 410.153 138.596 409.545 139.364C408.969 140.132 408.169 140.756 407.145 141.236C406.185 141.684 405.033 142.036 403.689 142.292C402.345 142.516 400.825 142.628 399.129 142.628C397.945 142.628 396.665 142.58 395.289 142.484C393.945 142.356 392.553 142.212 391.113 142.052C389.705 141.892 388.313 141.764 386.937 141.668C385.593 141.54 384.329 141.476 383.145 141.476C382.057 141.476 381.017 141.54 380.025 141.668C379.033 141.764 378.265 141.972 377.721 142.292C378.553 142.516 379.241 142.98 379.785 143.684C380.329 144.388 380.601 145.22 380.601 146.18C380.601 147.268 380.249 148.212 379.545 149.012C378.873 149.812 377.977 150.212 376.857 150.212C375.737 150.212 374.873 149.844 374.265 149.108C373.689 148.34 373.401 147.444 373.401 146.42C373.401 145.652 373.609 144.836 374.025 143.972C374.473 143.076 375.305 142.34 376.521 141.764C377.289 141.38 378.089 141.108 378.921 140.948C379.753 140.788 380.537 140.692 381.273 140.66C382.009 140.628 382.569 140.612 382.953 140.612C384.937 140.612 386.873 140.708 388.761 140.9C390.649 141.06 392.489 141.236 394.281 141.428C396.105 141.588 397.865 141.668 399.561 141.668C400.809 141.668 401.849 141.604 402.681 141.476C403.545 141.348 404.329 141.156 405.033 140.9L404.937 141.284C404.457 140.9 404.009 140.356 403.593 139.652C403.177 138.948 402.969 138.148 402.969 137.252C402.969 136.1 403.305 135.156 403.977 134.42C404.681 133.684 405.609 133.316 406.761 133.316ZM389.001 141.428C389.001 141.428 389.241 141.46 389.721 141.524C390.233 141.556 390.857 141.604 391.593 141.668C392.329 141.732 393.065 141.796 393.801 141.86C394.537 141.924 395.161 141.988 395.673 142.052C396.185 142.084 396.441 142.1 396.441 142.1L389.289 168.932C389.001 170.084 388.889 170.996 388.953 171.668C389.049 172.308 389.401 172.772 390.009 173.06C390.649 173.316 391.609 173.476 392.889 173.54L392.697 174.5C391.705 174.436 390.409 174.404 388.809 174.404C387.209 174.372 385.545 174.356 383.817 174.356C382.153 174.356 380.553 174.372 379.017 174.404C377.513 174.404 376.297 174.436 375.369 174.5L375.561 173.54C376.905 173.476 377.961 173.316 378.729 173.06C379.529 172.772 380.137 172.308 380.553 171.668C381.001 170.996 381.369 170.084 381.657 168.932L389.001 141.428ZM405.824 174.5H399.056L404.912 153.764C405.136 152.9 405.2 152.292 405.104 151.94C405.04 151.556 404.8 151.364 404.384 151.364C403.808 151.364 403.28 151.652 402.8 152.228C402.32 152.772 401.808 153.748 401.264 155.156L400.352 157.604H399.44L400.736 153.956C401.216 152.676 401.792 151.684 402.464 150.98C403.136 150.276 403.888 149.78 404.72 149.492C405.584 149.172 406.464 149.012 407.36 149.012C408.384 149.012 409.168 149.22 409.712 149.636C410.256 150.02 410.624 150.548 410.816 151.22C411.008 151.892 411.072 152.628 411.008 153.428C410.976 154.196 410.864 154.964 410.672 155.732L405.824 174.5ZM418.112 150.068C417.472 150.068 416.784 150.26 416.048 150.644C415.312 151.028 414.56 151.716 413.792 152.708C413.024 153.7 412.208 155.076 411.344 156.836C410.512 158.596 409.648 160.852 408.752 163.604C407.888 166.324 406.992 169.62 406.064 173.492L407.12 167.012C408.144 163.492 409.072 160.58 409.904 158.276C410.736 155.972 411.568 154.148 412.4 152.804C413.264 151.428 414.16 150.452 415.088 149.876C416.048 149.3 417.136 149.012 418.352 149.012C419.6 149.012 420.56 149.38 421.232 150.116C421.904 150.852 422.24 151.78 422.24 152.9C422.24 153.796 422.032 154.628 421.616 155.396C421.232 156.132 420.688 156.74 419.984 157.22C419.312 157.668 418.544 157.892 417.68 157.892C416.752 157.892 416.032 157.652 415.52 157.172C415.008 156.66 414.752 155.94 414.752 155.012C414.752 154.244 414.928 153.54 415.28 152.9C415.632 152.228 416.112 151.652 416.72 151.172C417.328 150.692 418 150.372 418.736 150.212C418.64 150.18 418.544 150.148 418.448 150.116C418.352 150.084 418.24 150.068 418.112 150.068ZM429.379 141.668C429.443 140.292 429.939 139.236 430.867 138.5C431.827 137.764 432.963 137.396 434.275 137.396C435.459 137.396 436.355 137.684 436.963 138.26C437.603 138.804 437.891 139.572 437.827 140.564C437.763 141.812 437.251 142.836 436.291 143.636C435.331 144.404 434.179 144.788 432.835 144.788C431.715 144.788 430.835 144.516 430.195 143.972C429.587 143.396 429.315 142.628 429.379 141.668ZM427.555 153.764C428.099 152.164 427.923 151.364 427.027 151.364C426.451 151.364 425.923 151.652 425.443 152.228C424.963 152.804 424.467 153.78 423.955 155.156L422.995 157.604H422.083L423.427 153.956C423.875 152.676 424.435 151.684 425.107 150.98C425.811 150.276 426.579 149.78 427.411 149.492C428.275 149.172 429.171 149.012 430.099 149.012C431.219 149.012 432.099 149.22 432.739 149.636C433.379 150.052 433.811 150.596 434.035 151.268C434.259 151.908 434.339 152.628 434.275 153.428C434.211 154.196 434.051 154.964 433.795 155.732L428.755 170.42C428.467 171.284 428.387 171.908 428.515 172.292C428.675 172.644 428.979 172.82 429.427 172.82C429.843 172.82 430.291 172.58 430.771 172.1C431.283 171.62 431.843 170.596 432.451 169.028L433.315 166.724H434.227L432.979 170.228C432.531 171.54 431.955 172.548 431.251 173.252C430.547 173.956 429.779 174.452 428.947 174.74C428.147 175.028 427.331 175.172 426.499 175.172C425.123 175.172 424.067 174.868 423.331 174.26C422.627 173.652 422.243 172.772 422.179 171.62C422.115 170.468 422.339 169.108 422.851 167.54L427.555 153.764ZM447.056 163.652L449.264 163.412C448.016 163.956 446.928 164.468 446 164.948C445.072 165.396 444.352 165.812 443.84 166.196C443.328 166.548 443.072 166.9 443.072 167.252C443.072 167.54 443.248 167.796 443.6 168.02C443.984 168.212 444.528 168.42 445.232 168.644L449.264 169.988C450.192 170.276 451.072 170.644 451.904 171.092C452.736 171.508 453.408 172.052 453.92 172.724C454.464 173.364 454.736 174.18 454.736 175.172C454.736 176.356 454.352 177.46 453.584 178.484C452.816 179.508 451.744 180.404 450.368 181.172C449.024 181.972 447.472 182.58 445.712 182.996C443.984 183.444 442.128 183.668 440.144 183.668C438.512 183.668 437.04 183.508 435.728 183.188C434.416 182.9 433.376 182.484 432.608 181.94C431.808 181.396 431.408 180.756 431.408 180.02C431.408 179.412 431.68 178.852 432.224 178.34C432.768 177.828 433.472 177.38 434.336 176.996C435.2 176.644 436.144 176.34 437.168 176.084C438.192 175.86 439.2 175.7 440.192 175.604L440.384 176.324C439.296 176.932 438.528 177.556 438.08 178.196C437.632 178.836 437.408 179.476 437.408 180.116C437.408 181.012 437.744 181.684 438.416 182.132C439.12 182.612 440.048 182.852 441.2 182.852C442.064 182.852 442.976 182.724 443.936 182.468C444.928 182.212 445.84 181.844 446.672 181.364C447.504 180.916 448.176 180.372 448.688 179.732C449.2 179.124 449.456 178.468 449.456 177.764C449.456 177.188 449.232 176.788 448.784 176.564C448.336 176.34 447.728 176.116 446.96 175.892L440.144 173.924C439.344 173.7 438.656 173.332 438.08 172.82C437.536 172.276 437.264 171.604 437.264 170.804C437.264 169.908 437.632 169.092 438.368 168.356C439.136 167.62 440.256 166.884 441.728 166.148C443.2 165.38 444.976 164.548 447.056 163.652ZM449.12 149.924C448.544 149.924 448 150.148 447.488 150.596C447.008 151.044 446.576 151.652 446.192 152.42C445.84 153.188 445.552 154.036 445.328 154.964C445.104 155.892 444.928 156.836 444.8 157.796C444.704 158.756 444.656 159.652 444.656 160.484C444.656 161.54 444.784 162.276 445.04 162.692C445.328 163.108 445.712 163.316 446.192 163.316C446.992 163.316 447.664 162.996 448.208 162.356C448.784 161.684 449.248 160.836 449.6 159.812C449.984 158.756 450.256 157.636 450.416 156.452C450.576 155.236 450.656 154.068 450.656 152.948C450.656 152.116 450.56 151.412 450.368 150.836C450.176 150.228 449.76 149.924 449.12 149.924ZM449.984 149.06C452.064 149.06 453.792 149.492 455.168 150.356C456.544 151.188 457.232 152.564 457.232 154.484C457.232 156.02 456.736 157.54 455.744 159.044C454.784 160.516 453.424 161.748 451.664 162.74C449.904 163.7 447.808 164.18 445.376 164.18C443.328 164.18 441.616 163.748 440.24 162.884C438.864 162.02 438.176 160.66 438.176 158.804C438.176 157.748 438.416 156.66 438.896 155.54C439.408 154.388 440.144 153.332 441.104 152.372C442.096 151.38 443.328 150.58 444.8 149.972C446.272 149.364 448 149.06 449.984 149.06ZM453.728 151.556L452.816 151.22C453.296 149.972 454.064 148.948 455.12 148.148C456.208 147.316 457.376 146.9 458.624 146.9C459.616 146.9 460.384 147.172 460.928 147.716C461.472 148.26 461.744 149.012 461.744 149.972C461.744 150.868 461.504 151.556 461.024 152.036C460.544 152.516 460.032 152.756 459.488 152.756C458.976 152.756 458.48 152.564 458 152.18C457.552 151.796 457.264 151.204 457.136 150.404C457.008 149.604 457.2 148.596 457.712 147.38L458.096 147.62C456.88 148.068 455.968 148.596 455.36 149.204C454.752 149.78 454.208 150.564 453.728 151.556ZM474.88 149.972C474.144 149.972 473.36 150.42 472.528 151.316C471.728 152.18 470.928 153.348 470.128 154.82C469.36 156.292 468.656 157.94 468.016 159.764C467.408 161.588 466.912 163.476 466.528 165.428C466.176 167.348 466 169.188 466 170.948C466 172.1 466.128 172.932 466.384 173.444C466.672 173.956 467.088 174.212 467.632 174.212C468.368 174.212 469.136 173.796 469.936 172.964C470.736 172.1 471.52 170.948 472.288 169.508C473.056 168.068 473.744 166.452 474.352 164.66C474.992 162.836 475.504 160.948 475.888 158.996C476.272 157.044 476.464 155.156 476.464 153.332C476.464 151.988 476.32 151.092 476.032 150.644C475.776 150.196 475.392 149.972 474.88 149.972ZM459.568 167.252C459.568 165.78 459.76 164.212 460.144 162.548C460.56 160.884 461.184 159.252 462.016 157.652C462.848 156.052 463.872 154.612 465.088 153.332C466.336 152.02 467.792 150.98 469.456 150.212C471.152 149.412 473.04 149.012 475.12 149.012C477.584 149.012 479.488 149.684 480.832 151.028C482.208 152.372 482.896 154.34 482.896 156.932C482.896 158.404 482.688 159.972 482.272 161.636C481.888 163.3 481.28 164.932 480.448 166.532C479.616 168.132 478.576 169.588 477.328 170.9C476.112 172.18 474.656 173.22 472.96 174.02C471.296 174.788 469.424 175.172 467.344 175.172C464.88 175.172 462.96 174.5 461.584 173.156C460.24 171.812 459.568 169.844 459.568 167.252Z" fill="black"/>
<path d="M298.5 180.5C296.5 213.833 294.5 247.167 292.5 280.5C291.167 313.833 288.833 347.167 285.5 380.5" stroke="#654321" stroke-width="4"/>
<path d="M293.952 208.626C299.959 205.825 301.044 195.439 296.376 185.429C291.708 175.418 283.054 169.573 277.048 172.374C271.041 175.175 269.956 185.561 274.624 195.571C279.292 205.582 287.946 211.427 293.952 208.626Z" stroke="#654321" stroke-width="2.5"/>
<path d="M289.34 229.294C295.568 227.027 297.554 216.775 293.776 206.396C289.998 196.016 281.887 189.439 275.66 191.706C269.432 193.973 267.446 204.225 271.224 214.604C275.002 224.984 283.113 231.561 289.34 229.294Z" stroke="#654321" stroke-width="2.5"/>
<path d="M285.676 249.819C292.078 248.103 294.95 238.064 292.091 227.394C289.232 216.725 281.725 209.466 275.324 211.181C268.922 212.897 266.05 222.937 268.909 233.606C271.768 244.275 279.275 251.534 285.676 249.819Z" stroke="#654321" stroke-width="2.5"/>
<path d="M281.973 270.196C288.5 269.045 292.236 259.294 290.318 248.416C288.4 237.538 281.554 229.653 275.027 230.804C268.5 231.955 264.764 241.706 266.682 252.584C268.6 263.462 275.446 271.347 281.973 270.196Z" stroke="#654321" stroke-width="2.5"/>
<path d="M278.243 290.424C284.845 289.846 289.417 280.458 288.454 269.454C287.492 258.45 281.359 249.998 274.757 250.576C268.155 251.154 263.583 260.542 264.546 271.546C265.508 282.55 271.641 291.001 278.243 290.424Z" stroke="#654321" stroke-width="2.5"/>
<path d="M300.048 213.626C306.054 216.427 314.708 210.582 319.376 200.571C324.044 190.561 322.959 180.175 316.952 177.374C310.946 174.573 302.292 180.418 297.624 190.429C292.956 200.439 294.041 210.825 300.048 213.626Z" stroke="#654321" stroke-width="2.5"/>
<path d="M303.66 234.294C309.887 236.561 317.998 229.984 321.776 219.604C325.554 209.225 323.568 198.973 317.34 196.706C311.113 194.439 303.002 201.016 299.224 211.396C295.446 221.775 297.432 232.027 303.66 234.294Z" stroke="#654321" stroke-width="2.5"/>
<path d="M307.324 254.819C313.725 256.534 321.232 249.275 324.091 238.606C326.95 227.937 324.078 217.897 317.676 216.181C311.275 214.466 303.768 221.725 300.909 232.394C298.05 243.063 300.922 253.103 307.324 254.819Z" stroke="#654321" stroke-width="2.5"/>
<path d="M311.027 275.196C317.554 276.347 324.4 268.462 326.318 257.584C328.236 246.706 324.5 236.955 317.973 235.804C311.446 234.653 304.6 242.538 302.682 253.416C300.764 264.294 304.5 274.045 311.027 275.196Z" stroke="#654321" stroke-width="2.5"/>
<path d="M314.757 295.424C321.359 296.001 327.492 287.55 328.454 276.546C329.417 265.542 324.845 256.154 318.243 255.576C311.641 254.998 305.508 263.45 304.546 274.454C303.583 285.458 308.155 294.846 314.757 295.424Z" stroke="#654321" stroke-width="2.5"/>
<path d="M292.5 300.5C274.5 303.833 260.5 302.167 250.5 295.5" stroke="#654321" stroke-width="3"/>
<path d="M290.5 320.5C270.5 327.167 253.833 328.833 240.5 325.5" stroke="#654321" stroke-width="3"/>
<path d="M288.5 340.5C273.167 345.833 261.167 347.5 252.5 345.5" stroke="#654321" stroke-width="3"/>
<path opacity="0.5" d="M120.5 460.5C240.5 483.833 360.5 483.833 480.5 460.5" stroke="#8B6F47" stroke-width="1.5"/>
<path d="M188.428 409.3H195.82C198.209 409.3 200.262 409.729 201.98 410.588C203.697 411.447 205.022 412.697 205.956 414.34C206.889 415.945 207.356 417.868 207.356 420.108C207.356 421.825 207.02 423.375 206.348 424.756C205.676 426.1 204.78 427.239 203.66 428.172C202.54 429.105 201.27 429.815 199.852 430.3C198.433 430.748 196.958 430.916 195.428 430.804C193.934 430.692 192.478 430.263 191.06 429.516V428.956C191.06 428.956 191.377 429.012 192.012 429.124C192.646 429.199 193.449 429.217 194.42 429.18C195.428 429.105 196.473 428.9 197.556 428.564C198.676 428.191 199.702 427.556 200.636 426.66C201.606 425.764 202.334 424.513 202.82 422.908C202.932 422.497 203.025 421.993 203.1 421.396C203.174 420.761 203.193 420.145 203.156 419.548C203.118 416.972 202.446 414.9 201.14 413.332C199.833 411.764 197.985 410.98 195.596 410.98H188.988C188.988 410.98 188.932 410.849 188.82 410.588C188.745 410.289 188.652 410.009 188.54 409.748C188.465 409.449 188.428 409.3 188.428 409.3ZM189.156 409.3V448.5H185.516V409.3H189.156ZM185.684 444.412V448.5H181.204V447.94C181.204 447.94 181.316 447.94 181.54 447.94C181.801 447.94 181.932 447.94 181.932 447.94C182.902 447.94 183.724 447.604 184.396 446.932C185.105 446.223 185.478 445.383 185.516 444.412H185.684ZM185.684 413.388H185.516C185.516 412.417 185.161 411.596 184.452 410.924C183.742 410.215 182.902 409.86 181.932 409.86C181.932 409.86 181.82 409.86 181.596 409.86C181.372 409.86 181.26 409.86 181.26 409.86L181.204 409.3H185.684V413.388ZM188.988 444.412H189.156C189.193 445.383 189.548 446.223 190.22 446.932C190.929 447.604 191.769 447.94 192.74 447.94C192.74 447.94 192.852 447.94 193.076 447.94C193.337 447.94 193.468 447.94 193.468 447.94V448.5H188.988V444.412ZM226.331 408.516L242.907 448.164H238.147L225.211 413.836L226.331 408.516ZM214.291 444.412C214.029 445.159 213.992 445.793 214.179 446.316C214.365 446.839 214.664 447.249 215.075 447.548C215.523 447.809 215.971 447.94 216.419 447.94H216.923V448.5H205.667V447.94C205.667 447.94 205.76 447.94 205.947 447.94C206.096 447.94 206.171 447.94 206.171 447.94C207.029 447.94 207.907 447.679 208.803 447.156C209.736 446.596 210.501 445.681 211.099 444.412H214.291ZM226.331 408.516L226.835 412.436L212.779 448.332H209.419L223.755 414.284C223.755 414.284 223.848 414.06 224.035 413.612C224.259 413.127 224.501 412.548 224.763 411.876C225.061 411.204 225.304 410.551 225.491 409.916C225.715 409.281 225.827 408.815 225.827 408.516H226.331ZM234.227 433.212V434.892H216.699V433.212H234.227ZM236.747 444.412H241.339C241.899 445.681 242.645 446.596 243.579 447.156C244.512 447.679 245.408 447.94 246.267 447.94C246.267 447.94 246.341 447.94 246.491 447.94C246.64 447.94 246.715 447.94 246.715 447.94V448.5H234.115V447.94H234.619C235.328 447.94 235.963 447.641 236.523 447.044C237.083 446.409 237.157 445.532 236.747 444.412ZM268.438 409.3C272.432 409.3 275.923 410.121 278.91 411.764C281.934 413.369 284.286 415.647 285.966 418.596C287.683 421.545 288.542 424.98 288.542 428.9C288.542 432.82 287.683 436.255 285.966 439.204C284.286 442.116 281.934 444.393 278.91 446.036C275.923 447.679 272.432 448.5 268.438 448.5H256.454L256.398 446.82C256.398 446.82 256.79 446.82 257.574 446.82C258.395 446.82 259.403 446.82 260.598 446.82C261.83 446.82 263.043 446.82 264.238 446.82C265.432 446.82 266.422 446.82 267.206 446.82C268.027 446.82 268.438 446.82 268.438 446.82C271.648 446.82 274.43 446.073 276.782 444.58C279.171 443.087 281.019 440.996 282.326 438.308C283.67 435.62 284.342 432.484 284.342 428.9C284.342 425.316 283.67 422.18 282.326 419.492C281.019 416.804 279.171 414.713 276.782 413.22C274.392 411.727 271.611 410.98 268.438 410.98C268.438 410.98 268.008 410.98 267.15 410.98C266.328 410.98 265.283 410.98 264.014 410.98C262.782 410.98 261.531 410.98 260.262 410.98C259.03 410.98 257.984 410.98 257.126 410.98C256.267 410.98 255.838 410.98 255.838 410.98V409.3H268.438ZM257.406 409.3V448.5H253.766V409.3H257.406ZM253.934 444.412V448.5H249.454V447.94C249.454 447.94 249.566 447.94 249.79 447.94C250.051 447.94 250.182 447.94 250.182 447.94C251.152 447.94 251.974 447.604 252.646 446.932C253.355 446.223 253.728 445.383 253.766 444.412H253.934ZM253.934 413.388H253.766C253.766 412.417 253.411 411.596 252.702 410.924C251.992 410.215 251.152 409.86 250.182 409.86C250.182 409.86 250.07 409.86 249.846 409.86C249.622 409.86 249.51 409.86 249.51 409.86L249.454 409.3H253.934V413.388ZM309.401 408.516L325.977 448.164H321.217L308.281 413.836L309.401 408.516ZM297.361 444.412C297.1 445.159 297.062 445.793 297.249 446.316C297.436 446.839 297.734 447.249 298.145 447.548C298.593 447.809 299.041 447.94 299.489 447.94H299.993V448.5H288.737V447.94C288.737 447.94 288.83 447.94 289.017 447.94C289.166 447.94 289.241 447.94 289.241 447.94C290.1 447.94 290.977 447.679 291.873 447.156C292.806 446.596 293.572 445.681 294.169 444.412H297.361ZM309.401 408.516L309.905 412.436L295.849 448.332H292.489L306.825 414.284C306.825 414.284 306.918 414.06 307.105 413.612C307.329 413.127 307.572 412.548 307.833 411.876C308.132 411.204 308.374 410.551 308.561 409.916C308.785 409.281 308.897 408.815 308.897 408.516H309.401ZM317.297 433.212V434.892H299.769V433.212H317.297ZM319.817 444.412H324.409C324.969 445.681 325.716 446.596 326.649 447.156C327.582 447.679 328.478 447.94 329.337 447.94C329.337 447.94 329.412 447.94 329.561 447.94C329.71 447.94 329.785 447.94 329.785 447.94V448.5H317.185V447.94H317.689C318.398 447.94 319.033 447.641 319.593 447.044C320.153 446.409 320.228 445.532 319.817 444.412ZM339.748 409.3H347.644C349.324 409.3 350.836 409.543 352.18 410.028C353.561 410.513 354.719 411.223 355.652 412.156C356.585 413.052 357.295 414.153 357.78 415.46C358.303 416.729 358.564 418.185 358.564 419.828C358.564 421.62 358.135 423.337 357.276 424.98C356.455 426.623 355.316 427.967 353.86 429.012C352.441 430.02 350.836 430.524 349.044 430.524C349.679 430.785 350.369 431.327 351.116 432.148C351.863 432.932 352.516 433.697 353.076 434.444C353.076 434.444 353.319 434.817 353.804 435.564C354.327 436.273 354.961 437.151 355.708 438.196C356.492 439.241 357.276 440.268 358.06 441.276C358.844 442.284 359.516 443.087 360.076 443.684C360.823 444.505 361.569 445.233 362.316 445.868C363.063 446.503 363.865 447.007 364.724 447.38C365.62 447.753 366.609 447.94 367.692 447.94V448.5H364.612C362.895 448.5 361.401 448.239 360.132 447.716C358.9 447.193 357.855 446.559 356.996 445.812C356.137 445.028 355.409 444.281 354.812 443.572C354.7 443.423 354.383 442.993 353.86 442.284C353.375 441.575 352.777 440.735 352.068 439.764C351.396 438.756 350.724 437.767 350.052 436.796C349.38 435.825 348.801 435.004 348.316 434.332C347.831 433.623 347.551 433.212 347.476 433.1C346.767 432.167 345.983 431.308 345.124 430.524C344.265 429.74 343.332 429.348 342.324 429.348V428.788C342.324 428.788 342.604 428.807 343.164 428.844C343.761 428.844 344.471 428.825 345.292 428.788C346.263 428.751 347.327 428.601 348.484 428.34C349.641 428.079 350.724 427.537 351.732 426.716C352.74 425.895 353.505 424.644 354.028 422.964C354.14 422.553 354.233 422.049 354.308 421.452C354.383 420.817 354.401 420.201 354.364 419.604C354.327 417.065 353.673 415.049 352.404 413.556C351.172 412.025 349.511 411.204 347.42 411.092C346.375 411.017 345.292 410.999 344.172 411.036C343.089 411.036 342.175 411.036 341.428 411.036C340.681 411.036 340.308 411.036 340.308 411.036C340.308 410.999 340.252 410.849 340.14 410.588C340.065 410.289 339.972 410.009 339.86 409.748C339.785 409.449 339.748 409.3 339.748 409.3ZM340.476 409.3V448.5H336.836V409.3H340.476ZM337.004 444.412V448.5H332.524V447.94C332.524 447.94 332.636 447.94 332.86 447.94C333.121 447.94 333.252 447.94 333.252 447.94C334.223 447.94 335.044 447.604 335.716 446.932C336.425 446.223 336.799 445.383 336.836 444.412H337.004ZM337.004 413.388H336.836C336.799 412.417 336.425 411.596 335.716 410.924C335.044 410.215 334.223 409.86 333.252 409.86C333.252 409.86 333.121 409.86 332.86 409.86C332.636 409.86 332.524 409.86 332.524 409.86V409.3H337.004V413.388ZM340.308 444.412H340.476C340.476 445.383 340.831 446.223 341.54 446.932C342.249 447.604 343.089 447.94 344.06 447.94C344.06 447.94 344.172 447.94 344.396 447.94C344.62 447.94 344.732 447.94 344.732 447.94V448.5H340.308V444.412ZM376.679 409.3V448.5H373.039V409.3H376.679ZM373.207 444.412V448.5H368.727V447.94C368.727 447.94 368.839 447.94 369.063 447.94C369.325 447.94 369.455 447.94 369.455 447.94C370.426 447.94 371.247 447.604 371.919 446.932C372.629 446.223 373.002 445.383 373.039 444.412H373.207ZM373.207 413.388H373.039C373.002 412.417 372.629 411.596 371.919 410.924C371.247 410.215 370.426 409.86 369.455 409.86C369.455 409.86 369.325 409.86 369.063 409.86C368.839 409.86 368.727 409.86 368.727 409.86V409.3H373.207V413.388ZM376.511 444.412H376.679C376.717 445.383 377.071 446.223 377.743 446.932C378.453 447.604 379.293 447.94 380.263 447.94C380.263 447.94 380.375 447.94 380.599 447.94C380.823 447.94 380.954 447.94 380.991 447.94V448.5H376.511V444.412ZM376.511 413.388V409.3H380.991V409.86C380.954 409.86 380.823 409.86 380.599 409.86C380.375 409.86 380.263 409.86 380.263 409.86C379.293 409.86 378.453 410.215 377.743 410.924C377.071 411.596 376.717 412.417 376.679 413.388H376.511ZM404.393 408.516L420.969 448.164H416.209L403.273 413.836L404.393 408.516ZM392.353 444.412C392.092 445.159 392.054 445.793 392.241 446.316C392.428 446.839 392.726 447.249 393.137 447.548C393.585 447.809 394.033 447.94 394.481 447.94H394.985V448.5H383.729V447.94C383.729 447.94 383.822 447.94 384.009 447.94C384.158 447.94 384.233 447.94 384.233 447.94C385.092 447.94 385.969 447.679 386.865 447.156C387.798 446.596 388.564 445.681 389.161 444.412H392.353ZM404.393 408.516L404.897 412.436L390.841 448.332H387.481L401.817 414.284C401.817 414.284 401.91 414.06 402.097 413.612C402.321 413.127 402.564 412.548 402.825 411.876C403.124 411.204 403.366 410.551 403.553 409.916C403.777 409.281 403.889 408.815 403.889 408.516H404.393ZM412.289 433.212V434.892H394.761V433.212H412.289ZM414.809 444.412H419.401C419.961 445.681 420.708 446.596 421.641 447.156C422.574 447.679 423.47 447.94 424.329 447.94C424.329 447.94 424.404 447.94 424.553 447.94C424.702 447.94 424.777 447.94 424.777 447.94V448.5H412.177V447.94H412.681C413.39 447.94 414.025 447.641 414.585 447.044C415.145 446.409 415.22 445.532 414.809 444.412Z" fill="black"/>
<path opacity="0.6" d="M150.5 443.5C152.157 443.5 153.5 442.157 153.5 440.5C153.5 438.843 152.157 437.5 150.5 437.5C148.843 437.5 147.5 438.843 147.5 440.5C147.5 442.157 148.843 443.5 150.5 443.5Z" fill="#8B6F47"/>
<path opacity="0.5" d="M170.5 440.5C171.605 440.5 172.5 439.605 172.5 438.5C172.5 437.395 171.605 436.5 170.5 436.5C169.395 436.5 168.5 437.395 168.5 438.5C168.5 439.605 169.395 440.5 170.5 440.5Z" fill="#8B6F47"/>
<path opacity="0.5" d="M430.5 440.5C431.605 440.5 432.5 439.605 432.5 438.5C432.5 437.395 431.605 436.5 430.5 436.5C429.395 436.5 428.5 437.395 428.5 438.5C428.5 439.605 429.395 440.5 430.5 440.5Z" fill="#8B6F47"/>
<path opacity="0.6" d="M450.5 443.5C452.157 443.5 453.5 442.157 453.5 440.5C453.5 438.843 452.157 437.5 450.5 437.5C448.843 437.5 447.5 438.843 447.5 440.5C447.5 442.157 448.843 443.5 450.5 443.5Z" fill="#8B6F47"/>
</svg>
